<svg xmlns="http://www.w3.org/2000/svg" xmlns:xlink="http://www.w3.org/1999/xlink" width="500" zoomAndPan="magnify" viewBox="0 0 375 374.999991" height="500" preserveAspectRatio="xMidYMid meet" version="1.0"><path fill="#000000" d="M 50.929688 50 L 12.5 80.738281 L 12.5 19.261719 Z M 72.972656 44.871094 C 72.804688 44.996094 72.632812 45.117188 72.460938 45.238281 C 70.3125 46.972656 67.1875 46.972656 65.039062 45.238281 C 64.941406 45.164062 64.792969 45.066406 64.648438 44.96875 L 24.046875 12.5 L 113.453125 12.5 Z M 86.570312 50 L 125 19.261719 L 125 80.738281 Z M 61.546875 57.519531 C 63.890625 58.496094 66.382812 59.058594 68.871094 59.058594 C 71.3125 59.058594 73.730469 58.519531 75.976562 57.542969 L 113.453125 87.5 L 24.070312 87.5 Z M 18.75 100 L 118.75 100 C 129.101562 100 137.5 91.601562 137.5 81.25 L 137.5 18.75 C 137.5 8.398438 129.101562 0 118.75 0 L 18.75 0 C 8.398438 0 0 8.398438 0 18.75 L 0 81.25 C 0 91.601562 8.398438 100 18.75 100 " fill-opacity="1" fill-rule="nonzero"/><path fill="#000000" d="M 50.929688 187.5 L 12.5 218.238281 L 12.5 156.761719 Z M 72.972656 182.371094 C 72.804688 182.496094 72.632812 182.617188 72.460938 182.738281 C 70.3125 184.472656 67.1875 184.472656 65.039062 182.738281 C 64.941406 182.664062 64.792969 182.566406 64.648438 182.46875 L 24.046875 150 L 113.453125 150 Z M 86.570312 187.5 L 125 156.761719 L 125 218.238281 Z M 61.546875 195.019531 C 63.890625 195.996094 66.382812 196.558594 68.871094 196.558594 C 71.3125 196.558594 73.730469 196.019531 75.976562 195.042969 L 113.453125 225 L 24.070312 225 Z M 18.75 237.5 L 118.75 237.5 C 129.101562 237.5 137.5 229.101562 137.5 218.75 L 137.5 156.25 C 137.5 145.898438 129.101562 137.5 118.75 137.5 L 18.75 137.5 C 8.398438 137.5 0 145.898438 0 156.25 L 0 218.75 C 0 229.101562 8.398438 237.5 18.75 237.5 " fill-opacity="1" fill-rule="nonzero"/><path fill="#000000" d="M 50.929688 325 L 12.5 355.738281 L 12.5 294.261719 Z M 72.972656 319.871094 C 72.804688 319.996094 72.632812 320.117188 72.460938 320.238281 C 70.3125 321.972656 67.1875 321.972656 65.039062 320.238281 C 64.941406 320.164062 64.792969 320.066406 64.648438 319.96875 L 24.046875 287.5 L 113.453125 287.5 Z M 86.570312 325 L 125 294.261719 L 125 355.738281 Z M 61.546875 332.519531 C 63.890625 333.496094 66.382812 334.058594 68.871094 334.058594 C 71.3125 334.058594 73.730469 333.519531 75.976562 332.542969 L 113.453125 362.5 L 24.070312 362.5 Z M 18.75 375 L 118.75 375 C 129.101562 375 137.5 366.601562 137.5 356.25 L 137.5 293.75 C 137.5 283.398438 129.101562 275 118.75 275 L 18.75 275 C 8.398438 275 0 283.398438 0 293.75 L 0 356.25 C 0 366.601562 8.398438 375 18.75 375 " fill-opacity="1" fill-rule="nonzero"/><path fill="#000000" d="M 325 87.5 C 304.320312 87.5 287.5 70.679688 287.5 50 C 287.5 29.320312 304.320312 12.5 325 12.5 C 345.679688 12.5 362.5 29.320312 362.5 50 C 362.5 70.679688 345.679688 87.5 325 87.5 Z M 325 0 C 297.4375 0 275 22.4375 275 50 C 275 77.5625 297.4375 100 325 100 C 352.5625 100 375 77.5625 375 50 C 375 22.4375 352.5625 0 325 0 " fill-opacity="1" fill-rule="nonzero"/><path fill="#000000" d="M 325 225 C 304.320312 225 287.5 208.179688 287.5 187.5 C 287.5 166.820312 304.320312 150 325 150 C 345.679688 150 362.5 166.820312 362.5 187.5 C 362.5 208.179688 345.679688 225 325 225 Z M 325 137.5 C 297.4375 137.5 275 159.9375 275 187.5 C 275 215.0625 297.4375 237.5 325 237.5 C 352.5625 237.5 375 215.0625 375 187.5 C 375 159.9375 352.5625 137.5 325 137.5 " fill-opacity="1" fill-rule="nonzero"/><path fill="#000000" d="M 325 362.5 C 304.320312 362.5 287.5 345.679688 287.5 325 C 287.5 304.320312 304.320312 287.5 325 287.5 C 345.679688 287.5 362.5 304.320312 362.5 325 C 362.5 345.679688 345.679688 362.5 325 362.5 Z M 375 325 C 375 297.4375 352.5625 275 325 275 C 297.4375 275 275 297.4375 275 325 C 275 352.5625 297.4375 375 325 375 C 352.5625 375 375 352.5625 375 325 " fill-opacity="1" fill-rule="nonzero"/><path fill="#000000" d="M 332.496094 33.765625 L 318.066406 52.976562 L 316.917969 51.832031 C 314.476562 49.390625 310.523438 49.390625 308.082031 51.832031 C 305.640625 54.273438 305.640625 58.226562 308.082031 60.667969 L 314.332031 66.917969 C 315.503906 68.089844 317.089844 68.75 318.75 68.75 C 318.894531 68.75 319.042969 68.75 319.1875 68.726562 C 320.996094 68.601562 322.65625 67.699219 323.753906 66.234375 L 342.503906 41.234375 C 344.578125 38.476562 344.019531 34.570312 341.234375 32.496094 C 338.5 30.421875 334.570312 30.980469 332.496094 33.765625 " fill-opacity="1" fill-rule="nonzero"/><path fill="#000000" d="M 332.496094 171.265625 L 318.066406 190.476562 L 316.917969 189.332031 C 314.476562 186.890625 310.523438 186.890625 308.082031 189.332031 C 305.640625 191.773438 305.640625 195.726562 308.082031 198.167969 L 314.332031 204.417969 C 315.503906 205.589844 317.089844 206.25 318.75 206.25 C 318.894531 206.25 319.042969 206.25 319.1875 206.226562 C 320.996094 206.101562 322.65625 205.199219 323.753906 203.734375 L 342.503906 178.734375 C 344.578125 175.976562 344.019531 172.070312 341.234375 169.996094 C 338.5 167.917969 334.570312 168.480469 332.496094 171.265625 " fill-opacity="1" fill-rule="nonzero"/><path fill="#000000" d="M 332.496094 308.765625 L 318.066406 327.976562 L 316.917969 326.832031 C 314.476562 324.390625 310.523438 324.390625 308.082031 326.832031 C 305.640625 329.273438 305.640625 333.226562 308.082031 335.667969 L 314.332031 341.917969 C 315.503906 343.089844 317.089844 343.75 318.75 343.75 C 318.894531 343.75 319.042969 343.75 319.1875 343.726562 C 320.996094 343.601562 322.65625 342.699219 323.753906 341.257812 L 342.503906 316.257812 C 344.578125 313.476562 344.019531 309.570312 341.234375 307.496094 C 338.5 305.445312 334.570312 305.980469 332.496094 308.765625 " fill-opacity="1" fill-rule="nonzero"/><path fill="#000000" d="M 162.5 37.5 L 256.25 37.5 C 259.691406 37.5 262.5 34.691406 262.5 31.25 C 262.5 27.808594 259.691406 25 256.25 25 L 162.5 25 C 159.058594 25 156.25 27.808594 156.25 31.25 C 156.25 34.691406 159.058594 37.5 162.5 37.5 " fill-opacity="1" fill-rule="nonzero"/><path fill="#000000" d="M 162.5 75 L 225 75 C 228.441406 75 231.25 72.191406 231.25 68.75 C 231.25 65.308594 228.441406 62.5 225 62.5 L 162.5 62.5 C 159.058594 62.5 156.25 65.308594 156.25 68.75 C 156.25 72.191406 159.058594 75 162.5 75 " fill-opacity="1" fill-rule="nonzero"/><path fill="#000000" d="M 162.5 175 L 256.25 175 C 259.691406 175 262.5 172.191406 262.5 168.75 C 262.5 165.308594 259.691406 162.5 256.25 162.5 L 162.5 162.5 C 159.058594 162.5 156.25 165.308594 156.25 168.75 C 156.25 172.191406 159.058594 175 162.5 175 " fill-opacity="1" fill-rule="nonzero"/><path fill="#000000" d="M 162.5 212.5 L 225 212.5 C 228.441406 212.5 231.25 209.691406 231.25 206.25 C 231.25 202.808594 228.441406 200 225 200 L 162.5 200 C 159.058594 200 156.25 202.808594 156.25 206.25 C 156.25 209.691406 159.058594 212.5 162.5 212.5 " fill-opacity="1" fill-rule="nonzero"/><path fill="#000000" d="M 162.5 312.5 L 256.25 312.5 C 259.691406 312.5 262.5 309.691406 262.5 306.25 C 262.5 302.808594 259.691406 300 256.25 300 L 162.5 300 C 159.058594 300 156.25 302.808594 156.25 306.25 C 156.25 309.691406 159.058594 312.5 162.5 312.5 " fill-opacity="1" fill-rule="nonzero"/><path fill="#000000" d="M 162.5 350 L 225 350 C 228.441406 350 231.25 347.191406 231.25 343.75 C 231.25 340.308594 228.441406 337.5 225 337.5 L 162.5 337.5 C 159.058594 337.5 156.25 340.308594 156.25 343.75 C 156.25 347.191406 159.058594 350 162.5 350 " fill-opacity="1" fill-rule="nonzero"/></svg>