<svg xmlns="http://www.w3.org/2000/svg" xmlns:xlink="http://www.w3.org/1999/xlink" width="500" zoomAndPan="magnify" viewBox="0 0 375 374.999991" height="500" preserveAspectRatio="xMidYMid meet" version="1.0"><path fill="#000000" d="M 359.894531 302.773438 C 362.429688 298.382812 363.882812 293.296875 363.882812 287.882812 C 363.882812 284.828125 361.402344 282.347656 358.347656 282.347656 C 355.292969 282.347656 352.8125 284.828125 352.8125 287.882812 C 352.8125 298.253906 344.375 306.703125 333.984375 306.703125 C 323.605469 306.703125 315.15625 298.253906 315.15625 287.882812 C 315.15625 277.496094 323.605469 269.0625 333.984375 269.0625 C 336.566406 269.0625 339.058594 269.566406 341.398438 270.570312 C 344.210938 271.769531 347.464844 270.480469 348.664062 267.667969 C 349.875 264.855469 348.570312 261.605469 345.757812 260.40625 C 342.03125 258.804688 338.078125 257.996094 333.984375 257.996094 C 317.507812 257.996094 304.085938 271.402344 304.085938 287.882812 C 304.085938 293.285156 305.539062 298.359375 308.0625 302.738281 C 296.867188 310.953125 290.066406 324.164062 290.066406 338.175781 L 290.066406 338.363281 C 290.109375 349.253906 299.09375 358.117188 310.09375 358.117188 L 357.875 358.117188 C 363.238281 358.117188 368.289062 356.03125 372.070312 352.238281 C 375.851562 348.457031 377.925781 343.445312 377.914062 338.121094 C 377.914062 337.382812 377.890625 336.65625 377.859375 335.929688 C 377.1875 322.78125 370.535156 310.585938 359.894531 302.773438 Z M 364.242188 344.425781 C 362.546875 346.117188 360.285156 347.0625 357.875 347.0625 L 310.09375 347.0625 C 305.167969 347.0625 301.15625 343.132812 301.132812 338.339844 L 301.132812 338.175781 C 301.132812 327.414062 306.507812 317.28125 315.292969 311.175781 C 320.425781 315.289062 326.917969 317.765625 333.984375 317.765625 C 341.039062 317.765625 347.519531 315.300781 352.640625 311.207031 C 361.023438 317.027344 366.292969 326.386719 366.800781 336.496094 C 366.835938 337.035156 366.847656 337.589844 366.847656 338.132812 C 366.847656 340.503906 365.921875 342.742188 364.242188 344.425781 Z M 364.242188 344.425781 " fill-opacity="1" fill-rule="nonzero"/><path fill="#000000" d="M 310.105469 118.785156 L 357.886719 118.785156 C 368.886719 118.785156 377.871094 109.921875 377.914062 99.042969 L 377.914062 98.847656 C 377.914062 84.671875 371.25 71.660156 359.917969 63.40625 C 362.429688 59.027344 363.882812 53.957031 363.882812 48.539062 C 363.882812 32.070312 350.472656 18.667969 333.984375 18.667969 C 317.507812 18.667969 304.085938 32.070312 304.085938 48.539062 C 304.085938 53.96875 305.550781 59.0625 308.085938 63.453125 C 297.445312 71.253906 290.792969 83.402344 290.121094 96.597656 C 290.085938 97.324219 290.066406 98.0625 290.066406 98.789062 C 290.054688 104.113281 292.128906 109.125 295.898438 112.90625 C 299.691406 116.699219 304.730469 118.785156 310.105469 118.785156 Z M 333.984375 29.730469 C 344.375 29.730469 352.8125 38.167969 352.8125 48.539062 C 352.8125 58.921875 344.375 67.359375 333.984375 67.359375 C 323.605469 67.359375 315.15625 58.921875 315.15625 48.539062 C 315.15625 38.167969 323.605469 29.730469 333.984375 29.730469 Z M 301.179688 97.152344 C 301.6875 87.023438 306.945312 77.6875 315.328125 71.867188 C 320.449219 75.96875 326.9375 78.425781 333.984375 78.425781 C 341.0625 78.425781 347.554688 75.957031 352.6875 71.84375 C 361.578125 77.996094 366.847656 87.957031 366.847656 98.847656 L 366.847656 98.984375 C 366.824219 103.800781 362.8125 107.722656 357.886719 107.722656 L 310.105469 107.722656 C 307.695312 107.722656 305.433594 106.789062 303.738281 105.082031 C 302.054688 103.398438 301.132812 101.175781 301.132812 98.800781 C 301.132812 98.257812 301.144531 97.707031 301.179688 97.152344 Z M 301.179688 97.152344 " fill-opacity="1" fill-rule="nonzero"/><path fill="#000000" d="M 333.683594 232.574219 C 337.453125 228.792969 339.53125 223.777344 339.519531 218.453125 C 339.519531 217.726562 339.507812 216.992188 339.460938 216.265625 C 338.804688 203.089844 332.140625 190.921875 321.496094 183.117188 C 324.035156 178.726562 325.496094 173.632812 325.496094 168.214844 C 325.496094 151.734375 312.089844 138.332031 295.597656 138.332031 C 279.109375 138.332031 265.699219 151.734375 265.699219 168.214844 C 265.699219 173.621094 267.152344 178.691406 269.667969 183.070312 C 258.34375 191.335938 251.667969 204.382812 251.667969 218.511719 L 251.667969 218.695312 C 251.714844 229.585938 260.695312 238.449219 271.707031 238.449219 L 319.480469 238.449219 C 324.851562 238.449219 329.890625 236.363281 333.683594 232.574219 Z M 295.597656 149.394531 C 305.976562 149.394531 314.429688 157.832031 314.429688 168.214844 C 314.429688 178.589844 305.976562 187.035156 295.597656 187.035156 C 285.210938 187.035156 276.769531 178.589844 276.769531 168.214844 C 276.769531 157.832031 285.210938 149.394531 295.597656 149.394531 Z M 262.738281 218.671875 L 262.738281 218.511719 C 262.738281 207.65625 268.019531 197.664062 276.910156 191.519531 C 282.027344 195.621094 288.53125 198.101562 295.597656 198.101562 C 302.65625 198.101562 309.136719 195.632812 314.253906 191.542969 C 322.636719 197.363281 327.894531 206.699219 328.414062 216.816406 C 328.4375 217.371094 328.449219 217.925781 328.449219 218.464844 C 328.460938 220.839844 327.527344 223.0625 325.855469 224.746094 C 324.148438 226.453125 321.890625 227.386719 319.480469 227.386719 L 271.707031 227.386719 C 266.785156 227.386719 262.761719 223.46875 262.738281 218.671875 Z M 262.738281 218.671875 " fill-opacity="1" fill-rule="nonzero"/><path fill="#000000" d="M 253.257812 258.226562 L 125.167969 258.226562 C 106.40625 258.226562 88.789062 250.875 75.550781 237.503906 C 62.316406 224.148438 55.121094 206.457031 55.304688 187.707031 C 55.671875 149.570312 87.449219 118.554688 126.136719 118.554688 L 253.257812 118.554688 C 260.996094 118.554688 267.28125 112.261719 267.28125 104.539062 L 267.28125 77.386719 C 267.28125 69.652344 260.996094 63.359375 253.257812 63.359375 L 161.511719 63.359375 L 161.511719 40.96875 C 161.511719 33.730469 167.390625 27.851562 174.621094 27.851562 L 185.519531 27.851562 C 187.984375 37.429688 196.691406 44.527344 207.035156 44.527344 C 219.289062 44.527344 229.265625 34.558594 229.265625 22.320312 C 229.265625 10.066406 219.289062 0.109375 207.035156 0.109375 C 196.691406 0.109375 187.984375 7.210938 185.519531 16.789062 L 174.621094 16.789062 C 161.292969 16.789062 150.441406 27.632812 150.441406 40.96875 L 150.441406 63.359375 L 125.167969 63.359375 C 112.148438 63.359375 99.398438 65.367188 87.277344 69.214844 L 87.277344 54.246094 C 87.277344 40.910156 76.429688 30.0625 63.085938 30.0625 L 52.203125 30.0625 C 49.734375 20.488281 41.019531 13.386719 30.675781 13.386719 C 18.429688 13.386719 8.457031 23.34375 8.457031 35.597656 C 8.457031 47.847656 18.429688 57.804688 30.675781 57.804688 C 41.019531 57.804688 49.734375 50.707031 52.203125 41.128906 L 63.085938 41.128906 C 70.328125 41.128906 76.207031 47.007812 76.207031 54.246094 L 76.207031 73.328125 C 62.476562 79.183594 49.78125 87.515625 38.710938 98.121094 C 36.496094 100.230469 36.429688 103.734375 38.539062 105.933594 C 40.660156 108.148438 44.152344 108.214844 46.367188 106.105469 C 67.710938 85.683594 95.695312 74.425781 125.167969 74.425781 L 215.84375 74.425781 L 215.84375 107.492188 L 126.136719 107.492188 C 81.398438 107.492188 44.660156 143.425781 44.234375 187.589844 C 44.027344 209.328125 52.351562 229.816406 67.675781 245.296875 C 83.011719 260.773438 103.433594 269.292969 125.167969 269.292969 L 215.84375 269.292969 L 215.84375 302.355469 L 126.332031 302.355469 C 62.996094 302.355469 11.328125 251.371094 11.152344 188.71875 C 11.097656 167.214844 17.082031 146.25 28.472656 128.074219 C 30.085938 125.492188 29.300781 122.070312 26.71875 120.457031 C 24.125 118.832031 20.710938 119.613281 19.085938 122.207031 C 6.585938 142.144531 0.015625 165.152344 0.0859375 188.742188 C 0.222656 239.867188 31.585938 283.894531 76.207031 303.117188 L 76.207031 323.21875 C 76.207031 330.457031 70.316406 336.332031 63.085938 336.332031 L 52.203125 336.332031 C 49.734375 326.753906 41.019531 319.65625 30.675781 319.65625 C 18.429688 319.65625 8.457031 329.613281 8.457031 341.867188 C 8.457031 354.117188 18.429688 364.074219 30.675781 364.074219 C 41.019531 364.074219 49.734375 356.976562 52.203125 347.398438 L 63.085938 347.398438 C 76.429688 347.398438 87.277344 336.550781 87.277344 323.21875 L 87.277344 307.277344 C 99.582031 311.253906 112.703125 313.421875 126.332031 313.421875 L 150.441406 313.421875 L 150.441406 334.328125 C 150.441406 347.664062 161.292969 358.507812 174.621094 358.507812 L 185.519531 358.507812 C 187.984375 368.085938 196.691406 375.183594 207.035156 375.183594 C 219.289062 375.183594 229.265625 365.226562 229.265625 352.976562 C 229.265625 340.734375 219.289062 330.765625 207.035156 330.765625 C 196.691406 330.765625 187.984375 337.867188 185.519531 347.445312 L 174.621094 347.445312 C 167.390625 347.445312 161.511719 341.566406 161.511719 334.328125 L 161.511719 313.421875 L 253.257812 313.421875 C 260.996094 313.421875 267.28125 307.128906 267.28125 299.40625 L 267.28125 272.242188 C 267.28125 264.519531 260.996094 258.226562 253.257812 258.226562 Z M 207.035156 11.175781 C 213.191406 11.175781 218.195312 16.175781 218.195312 22.320312 C 218.195312 28.460938 213.191406 33.464844 207.035156 33.464844 C 200.886719 33.464844 195.882812 28.460938 195.882812 22.320312 C 195.882812 16.175781 200.886719 11.175781 207.035156 11.175781 Z M 30.675781 46.742188 C 24.527344 46.742188 19.523438 41.738281 19.523438 35.597656 C 19.523438 29.453125 24.527344 24.453125 30.675781 24.453125 C 36.832031 24.453125 41.824219 29.453125 41.824219 35.597656 C 41.824219 41.738281 36.820312 46.742188 30.675781 46.742188 Z M 226.914062 74.425781 L 253.257812 74.425781 C 254.886719 74.425781 256.210938 75.75 256.210938 77.386719 L 256.210938 104.539062 C 256.210938 106.164062 254.886719 107.492188 253.257812 107.492188 L 226.914062 107.492188 Z M 30.675781 353.011719 C 24.527344 353.011719 19.523438 348.007812 19.523438 341.867188 C 19.523438 335.722656 24.527344 330.71875 30.675781 330.71875 C 36.832031 330.71875 41.824219 335.722656 41.824219 341.867188 C 41.824219 348.007812 36.820312 353.011719 30.675781 353.011719 Z M 207.035156 341.832031 C 213.191406 341.832031 218.195312 346.832031 218.195312 352.976562 C 218.195312 359.117188 213.191406 364.121094 207.035156 364.121094 C 200.886719 364.121094 195.882812 359.117188 195.882812 352.976562 C 195.882812 346.832031 200.886719 341.832031 207.035156 341.832031 Z M 256.210938 299.394531 C 256.210938 301.03125 254.886719 302.355469 253.257812 302.355469 L 226.914062 302.355469 L 226.914062 269.292969 L 253.257812 269.292969 C 254.886719 269.292969 256.210938 270.617188 256.210938 272.242188 Z M 256.210938 299.394531 " fill-opacity="1" fill-rule="nonzero"/><path fill="#000000" d="M 182.300781 206.6875 C 187.453125 206.6875 191.652344 202.492188 191.652344 197.351562 L 191.652344 179.441406 C 191.652344 174.289062 187.453125 170.09375 182.300781 170.09375 L 182.265625 170.09375 C 181.65625 168.367188 180.941406 166.660156 180.15625 165 L 180.179688 164.976562 C 181.941406 163.214844 182.921875 160.863281 182.921875 158.375 C 182.921875 155.871094 181.941406 153.53125 180.179688 151.769531 L 167.519531 139.105469 C 163.875 135.460938 157.9375 135.460938 154.292969 139.105469 L 154.269531 139.125 C 152.609375 138.34375 150.902344 137.628906 149.171875 137.019531 L 149.171875 136.984375 C 149.171875 131.832031 144.988281 127.636719 139.832031 127.636719 L 121.914062 127.636719 C 116.761719 127.636719 112.5625 131.832031 112.5625 136.984375 L 112.5625 137.019531 C 110.835938 137.628906 109.128906 138.34375 107.46875 139.125 L 107.445312 139.105469 C 103.800781 135.460938 97.875 135.460938 94.230469 139.105469 L 81.558594 151.769531 C 77.914062 155.410156 77.914062 161.335938 81.558594 164.976562 L 81.582031 165 C 80.796875 166.660156 80.082031 168.367188 79.472656 170.09375 L 79.4375 170.09375 C 74.28125 170.09375 70.085938 174.289062 70.085938 179.441406 L 70.085938 197.351562 C 70.085938 202.492188 74.28125 206.6875 79.4375 206.6875 L 79.472656 206.6875 C 80.082031 208.414062 80.796875 210.121094 81.582031 211.78125 L 81.558594 211.804688 C 79.792969 213.566406 78.816406 215.917969 78.816406 218.40625 C 78.816406 220.910156 79.792969 223.25 81.558594 225.023438 L 94.230469 237.679688 C 95.996094 239.441406 98.335938 240.421875 100.835938 240.421875 C 103.328125 240.421875 105.679688 239.441406 107.445312 237.679688 L 107.46875 237.65625 C 109.128906 238.4375 110.835938 239.152344 112.5625 239.765625 L 112.5625 239.796875 C 112.5625 244.949219 116.761719 249.144531 121.914062 249.144531 L 139.832031 249.144531 C 144.976562 249.144531 149.171875 244.949219 149.171875 239.796875 L 149.171875 239.765625 C 150.902344 239.152344 152.609375 238.4375 154.269531 237.65625 L 154.292969 237.679688 C 156.058594 239.441406 158.410156 240.421875 160.898438 240.421875 C 163.402344 240.421875 165.742188 239.441406 167.519531 237.679688 L 180.179688 225.023438 C 181.941406 223.261719 182.921875 220.910156 182.921875 218.40625 C 182.921875 215.917969 181.941406 213.566406 180.179688 211.804688 L 180.15625 211.78125 C 180.941406 210.121094 181.65625 208.414062 182.265625 206.6875 Z M 180.582031 195.632812 C 176.730469 195.820312 173.386719 198.367188 172.152344 202.078125 C 171.496094 204.058594 170.691406 206.007812 169.742188 207.886719 C 167.980469 211.378906 168.554688 215.550781 171.140625 218.40625 L 160.898438 228.652344 C 158.039062 226.0625 153.867188 225.484375 150.359375 227.246094 C 148.492188 228.191406 146.542969 229 144.5625 229.65625 C 140.847656 230.890625 138.300781 234.230469 138.117188 238.082031 L 123.621094 238.082031 C 123.4375 234.230469 120.902344 230.890625 117.1875 229.65625 C 115.203125 229 113.246094 228.191406 111.375 227.246094 C 107.871094 225.484375 103.699219 226.0625 100.835938 228.640625 L 90.597656 218.40625 C 93.179688 215.550781 93.757812 211.378906 91.992188 207.886719 C 91.058594 206.007812 90.242188 204.046875 89.585938 202.078125 C 88.351562 198.367188 85.007812 195.820312 81.15625 195.632812 L 81.15625 181.148438 C 85.007812 180.964844 88.351562 178.425781 89.585938 174.714844 C 90.242188 172.734375 91.046875 170.773438 91.992188 168.90625 C 93.757812 165.402344 93.179688 161.230469 90.597656 158.375 L 100.835938 148.140625 C 103.699219 150.734375 107.871094 151.296875 111.363281 149.535156 C 113.246094 148.601562 115.203125 147.78125 117.175781 147.125 C 120.890625 145.890625 123.4375 142.550781 123.621094 138.699219 L 138.117188 138.699219 C 138.300781 142.550781 140.835938 145.890625 144.5625 147.125 C 146.53125 147.78125 148.492188 148.601562 150.359375 149.535156 C 153.867188 151.296875 158.039062 150.722656 160.898438 148.140625 L 171.140625 158.375 C 168.554688 161.230469 167.980469 165.402344 169.742188 168.90625 C 170.679688 170.773438 171.496094 172.734375 172.152344 174.714844 C 173.386719 178.425781 176.730469 180.964844 180.582031 181.148438 Z M 180.582031 195.632812 " fill-opacity="1" fill-rule="nonzero"/><path fill="#000000" d="M 130.875 162.625 C 116.65625 162.625 105.09375 174.1875 105.09375 188.398438 C 105.09375 202.59375 116.65625 214.15625 130.875 214.15625 C 145.082031 214.15625 156.644531 202.59375 156.644531 188.398438 C 156.644531 174.1875 145.082031 162.625 130.875 162.625 Z M 130.875 203.089844 C 122.757812 203.089844 116.160156 196.5 116.160156 188.398438 C 116.160156 180.28125 122.757812 173.691406 130.875 173.691406 C 138.980469 173.691406 145.574219 180.28125 145.574219 188.398438 C 145.574219 196.5 138.980469 203.089844 130.875 203.089844 Z M 130.875 203.089844 " fill-opacity="1" fill-rule="nonzero"/></svg>