<svg xmlns="http://www.w3.org/2000/svg" xmlns:xlink="http://www.w3.org/1999/xlink" width="500" zoomAndPan="magnify" viewBox="0 0 375 374.999991" height="500" preserveAspectRatio="xMidYMid meet" version="1.0"><path fill="#000000" d="M 295.769531 140.703125 C 314.023438 140.703125 323.25 162.929688 310.324219 175.875 C 297.371094 188.816406 275.183594 179.605469 275.183594 161.304688 C 275.183594 149.945312 284.390625 140.703125 295.769531 140.703125 Z M 302.320312 154.722656 C 296.496094 148.890625 286.46875 153.054688 286.46875 161.304688 C 286.46875 169.582031 296.496094 173.746094 302.320312 167.890625 C 305.957031 164.257812 305.957031 158.363281 302.320312 154.722656 Z M 339.699219 161.402344 L 339.699219 161.492188 C 347.769531 163.660156 354.230469 164.855469 360.992188 170.179688 C 368.648438 176.214844 373.808594 185.886719 374.605469 195.585938 C 374.992188 200.386719 374.355469 205.28125 372.6875 210.15625 L 336.292969 317.070312 C 336.179688 317.34375 336.082031 317.640625 335.96875 317.941406 C 333.316406 329.058594 329.457031 342.320312 321.847656 351.992188 C 313.554688 362.578125 301.355469 368.710938 282.738281 363.5 L 282.511719 363.433594 L 21.597656 291.867188 C 7.730469 288.050781 2.457031 274.277344 1.128906 260.191406 C 0.0078125 248.210938 1.835938 235.925781 3.160156 231.035156 C 4.054688 227.792969 4.054688 226.234375 5.375 222.570312 L 30.914062 152.246094 C 24.476562 138.226562 19.769531 124.648438 19.335938 114.328125 C 18.214844 88.351562 32.222656 71.382812 50.8125 63.445312 C 83.6875 49.421875 129.238281 64.542969 133.101562 105.6875 L 159.285156 112.753906 C 149.53125 94.417969 141.078125 74.789062 140.480469 61.210938 C 139.449219 36.628906 152.707031 20.574219 170.292969 13.070312 C 185.347656 6.640625 203.417969 6.640625 218.472656 13.070312 C 236.066406 20.574219 249.316406 36.628906 248.285156 61.210938 C 247.527344 79.023438 233.253906 107.15625 220.230469 129.222656 L 256.6875 139.054688 C 275.820312 104.75 341.753906 112.988281 339.699219 161.402344 Z M 337.667969 172.625 C 332.050781 192.222656 316.289062 218.320312 306.664062 233.019531 C 324.257812 239.101562 330.90625 259.023438 318.707031 272.695312 C 308.882812 283.71875 291.199219 285.363281 279.070312 277.15625 C 261.574219 265.355469 264.972656 240.984375 285.058594 233.34375 C 273.542969 215.753906 252.644531 180.949219 251.820312 161.394531 C 251.636719 157.183594 251.984375 153.277344 252.757812 149.664062 L 217.253906 140.082031 C 233.382812 155.972656 223.605469 182.046875 199.347656 185.515625 C 183.011719 187.875 166.199219 178.109375 163.871094 161.933594 C 162.523438 152.585938 166.660156 143.773438 173.855469 138.015625 C 171.640625 134.425781 169.308594 130.535156 166.957031 126.484375 L 133.101562 117.335938 C 130.65625 139.152344 112.058594 172.957031 97.734375 196.167969 C 111.992188 206.324219 115.28125 225.324219 103.238281 238.859375 C 91.449219 252.074219 70.15625 254.019531 55.585938 244.183594 C 37.765625 232.15625 37.605469 208.484375 54.949219 196.160156 C 49.492188 187.308594 43.390625 176.902344 37.839844 166.21875 L 15.957031 226.421875 C 13.515625 233.140625 13.902344 239.910156 17.304688 246.402344 C 20.703125 252.875 25.960938 256.988281 33.019531 258.894531 L 295.96875 329.421875 C 308.582031 332.808594 321.460938 325.667969 325.621094 313.4375 L 362.03125 206.550781 C 364.335938 199.757812 363.789062 193.148438 360.414062 186.839844 C 357.011719 180.484375 351.796875 176.457031 344.859375 174.585938 Z M 299.855469 242.863281 C 299.257812 243.484375 298.550781 243.960938 297.800781 244.257812 C 295.792969 245.058594 293.390625 244.554688 291.835938 243.070312 C 278.472656 246 274.265625 260.335938 285.347656 267.816406 C 297.5 276.003906 315.296875 267.679688 313.515625 255.164062 C 312.554688 248.535156 306.367188 243.984375 299.855469 242.863281 Z M 298.347656 225.1875 C 308.082031 210.140625 324.757812 182.378906 327.957031 165.242188 L 328.457031 160.96875 C 329.640625 133.34375 300.539062 123.921875 280.578125 132.425781 C 270.230469 136.835938 262.433594 146.347656 263.054688 160.96875 C 263.789062 178.167969 284.535156 212.261719 295.769531 229.113281 C 296.542969 227.945312 297.414062 226.621094 298.347656 225.1875 Z M 76.335938 88.609375 C 90.507812 88.609375 101.992188 100.113281 101.992188 114.3125 C 101.992188 128.488281 90.5 139.992188 76.335938 139.992188 C 62.152344 139.992188 50.660156 128.488281 50.660156 114.3125 C 50.660156 100.113281 62.152344 88.609375 76.335938 88.609375 Z M 86.507812 104.113281 C 77.457031 95.078125 61.953125 101.507812 61.953125 114.3125 C 61.953125 127.097656 77.464844 133.519531 86.507812 124.484375 C 92.125 118.863281 92.125 109.738281 86.507812 104.113281 Z M 91.714844 205.742188 L 83.746094 217.746094 C 82.648438 219.371094 81.464844 220.628906 80.269531 221.613281 L 80.730469 221.957031 C 80.09375 222.757812 79.269531 223.332031 78.402344 223.675781 L 78.402344 223.703125 C 77.214844 224.1875 75.476562 224.1875 74.265625 223.703125 C 72.6875 223.082031 71.550781 221.828125 71.027344 220.335938 C 70.316406 219.601562 69.609375 218.738281 68.921875 217.753906 L 60.953125 205.726562 C 50.46875 213.59375 50.804688 227.378906 61.886719 234.859375 C 78.015625 245.742188 101.613281 234.5625 99.195312 217.730469 C 98.476562 212.808594 95.640625 208.671875 91.714844 205.742188 Z M 81.40625 200.96875 C 97.492188 176.132812 123.171875 132.957031 122.113281 110.472656 C 122.113281 110.308594 122.089844 110.148438 122.113281 109.988281 C 121.496094 91.667969 111.03125 79.621094 97.421875 73.8125 C 69.367188 61.847656 28.933594 75.394531 30.578125 113.902344 C 31.609375 138.597656 62.675781 188.363281 76.335938 208.648438 C 77.78125 206.5 79.488281 203.910156 81.40625 200.96875 Z M 76.5625 212.808594 L 76.335938 212.648438 L 76.660156 212.421875 L 76.335938 212.261719 L 76 212.421875 L 76.335938 212.648438 L 76.089844 212.808594 C 76.25 212.808594 76.410156 212.808594 76.5625 212.808594 Z M 194.40625 36.667969 C 207.90625 36.667969 218.851562 47.625 218.851562 61.164062 C 218.851562 74.675781 207.90625 85.632812 194.40625 85.632812 C 180.882812 85.632812 169.9375 74.675781 169.9375 61.164062 C 169.9375 47.625 180.875 36.667969 194.40625 36.667969 Z M 203.699219 51.835938 C 195.429688 43.558594 181.222656 49.433594 181.222656 61.171875 C 181.222656 72.875 195.429688 78.78125 203.699219 70.480469 C 208.839844 65.324219 208.839844 56.984375 203.699219 51.835938 Z M 208.867188 147.679688 L 201.621094 158.5625 C 200.589844 160.046875 199.476562 161.257812 198.371094 162.175781 L 198.757812 162.523438 C 198.136719 163.324219 197.316406 163.894531 196.453125 164.242188 L 196.453125 164.265625 C 195.246094 164.75 193.527344 164.75 192.320312 164.265625 C 190.765625 163.644531 189.628906 162.410156 189.097656 160.976562 C 188.433594 160.265625 187.773438 159.464844 187.152344 158.570312 L 179.90625 147.664062 C 167.503906 159.007812 179.5625 176.980469 197.726562 174.375 C 212.703125 172.238281 219.214844 157.144531 208.867188 147.679688 Z M 198.878906 142.394531 C 214.007812 119.023438 236.1875 80.945312 237.058594 60.773438 C 238.5625 24.851562 200.847656 12.273438 174.710938 23.429688 C 161.136719 29.214844 150.925781 41.65625 151.726562 60.773438 C 152.34375 75.183594 163.765625 98.460938 175.210938 118.378906 C 175.417969 118.675781 175.597656 118.976562 175.757812 119.3125 C 179.34375 125.535156 182.929688 131.390625 186.152344 136.515625 L 194.398438 149.179688 C 195.679688 147.269531 197.1875 144.976562 198.878906 142.394531 Z M 194.132812 153.375 L 193.835938 153.164062 L 192.554688 153.667969 C 193.054688 153.511719 193.585938 153.398438 194.132812 153.375 Z M 196.226562 153.675781 L 194.945312 153.175781 L 194.648438 153.382812 C 195.179688 153.398438 195.703125 153.488281 196.226562 153.675781 Z M 194.953125 153.164062 C 194.269531 152.890625 194.519531 152.890625 193.835938 153.164062 C 194.269531 153.464844 194.519531 153.464844 194.953125 153.164062 Z M 258.921875 258.730469 C 261.847656 259.804688 263.355469 263.054688 262.28125 265.984375 C 261.210938 268.886719 257.988281 270.398438 255.0625 269.324219 C 223.285156 257.640625 197.832031 228.226562 192.578125 195.980469 C 192.078125 192.914062 194.15625 190.011719 197.234375 189.535156 C 200.296875 189.035156 203.199219 191.117188 203.675781 194.175781 C 208.292969 222.460938 230.980469 248.398438 258.921875 258.730469 Z M 174.023438 190.074219 C 175.605469 187.382812 179.03125 186.484375 181.722656 188.066406 C 184.398438 189.648438 185.285156 193.078125 183.710938 195.746094 C 170.875 217.660156 145.90625 230.300781 121.574219 233.800781 C 118.488281 234.238281 115.660156 232.082031 115.199219 229.027344 C 114.765625 225.9375 116.917969 223.082031 119.996094 222.644531 C 141.015625 219.601562 162.917969 208.921875 174.023438 190.074219 Z M 317.289062 338.222656 C 309.929688 341.625 301.433594 342.570312 293.070312 340.328125 L 30.09375 269.777344 C 23.058594 267.90625 17.003906 264.289062 12.324219 258.933594 C 13.191406 268.832031 16.320312 278.738281 24.546875 281 L 285.484375 352.574219 L 285.734375 352.640625 C 298.894531 356.316406 307.351562 352.203125 313.015625 345 C 314.621094 342.980469 316.03125 340.691406 317.289062 338.222656 Z M 317.289062 338.222656 " fill-opacity="1" fill-rule="nonzero"/></svg>