<svg xmlns="http://www.w3.org/2000/svg" xmlns:xlink="http://www.w3.org/1999/xlink" width="500" zoomAndPan="magnify" viewBox="0 0 375 374.999991" height="500" preserveAspectRatio="xMidYMid meet" version="1.0"><path fill="#000000" d="M 260.6875 257.1875 L 218.625 215.125 C 218.25 214.75 217.75 214.5 217.25 214.25 C 215.3125 213.125 213.0625 213.125 211.125 214.25 C 210.625 214.5 210.1875 214.75 209.75 215.125 L 183.5 241.375 L 131.9375 292.875 C 125.25 299.5625 116.4375 303.1875 107 303.1875 C 97.5625 303.1875 88.75 299.5 82.0625 292.875 C 75.375 286.1875 71.75 277.375 71.75 267.9375 C 71.75 258.5 75.4375 249.6875 82.0625 243 L 131.125 193.9375 C 131.125 193.9375 131.25 193.9375 131.25 193.875 L 159.8125 165.3125 C 161 164.125 161.625 162.5625 161.625 160.875 C 161.625 159.1875 160.9375 157.625 159.8125 156.4375 L 117.6875 114.3125 C 116.5 113.125 114.875 112.5625 113.25 112.5625 C 111.625 112.5625 110 113.125 108.8125 114.3125 L 31.3125 191.8125 C 11.0625 212.0625 -0.125 239 -0.125 267.6875 C -0.125 296.375 11.0625 323.3125 31.3125 343.5625 C 51.5625 363.8125 78.5 375 107.1875 375 C 135.875 375 162.8125 363.8125 183.0625 343.5625 L 260.5625 266.0625 C 261.75 264.875 262.375 263.3125 262.375 261.625 C 262.375 259.9375 261.6875 258.375 260.5625 257.1875 Z M 214.1875 228.375 L 247.375 261.5625 L 227.6875 281.25 L 194.4375 248 L 214.1875 228.3125 Z M 113.375 127.5625 L 146.625 160.8125 L 126.9375 180.5 L 93.6875 147.25 Z M 174.3125 334.6875 C 156.4375 352.5625 132.625 362.4375 107.3125 362.4375 C 82 362.4375 58.1875 352.5625 40.3125 334.6875 C 3.375 297.75 3.375 237.5625 40.3125 200.625 L 84.875 156.0625 L 118.125 189.3125 L 73.3125 234.0625 C 64.3125 243.0625 59.3125 255.0625 59.3125 267.8125 C 59.3125 280.5625 64.25 292.5625 73.3125 301.5625 C 82.3125 310.5625 94.3125 315.5625 107.0625 315.5625 C 119.8125 315.5625 131.8125 310.625 140.8125 301.5625 L 185.5625 256.8125 L 218.8125 290.0625 L 174.25 334.625 Z M 174.3125 334.6875 " fill-opacity="1" fill-rule="nonzero"/><path fill="#000000" d="M 206.25 137.5 C 208.8125 137.5 211.375 137.3125 213.9375 137 C 228.8125 135.375 242.625 128.9375 253.5 118.5625 C 267.125 105.6875 274.9375 87.5625 274.9375 68.8125 C 274.9375 30.875 244.125 0.0625 206.1875 0.0625 C 168.25 0.0625 137.4375 30.875 137.4375 68.8125 C 137.4375 87.625 145.25 105.8125 158.875 118.625 C 171.625 130.875 188.4375 137.5625 206.1875 137.5625 Z M 241.3125 112.625 C 240.75 113.0625 240.1875 113.5 239.625 113.9375 C 238.8125 114.5 238.0625 115.125 237.1875 115.6875 C 236.5625 116.125 235.9375 116.5 235.3125 116.875 C 234.5 117.375 233.6875 117.875 232.8125 118.3125 C 232.1875 118.6875 231.5 119 230.8125 119.3125 C 229.9375 119.75 229.0625 120.125 228.1875 120.5 C 227.5 120.8125 226.8125 121.0625 226.125 121.3125 C 225.1875 121.6875 224.3125 122 223.375 122.25 C 222.6875 122.4375 222 122.6875 221.3125 122.875 C 220.3125 123.125 219.3125 123.375 218.3125 123.625 C 217.6875 123.75 217 123.9375 216.375 124.0625 C 215.25 124.25 214.125 124.4375 213 124.5625 C 212.4375 124.625 211.875 124.75 211.3125 124.75 C 209.625 124.875 207.875 125 206.125 125 C 204.375 125 202.6875 124.9375 200.9375 124.75 C 200.375 124.75 199.8125 124.625 199.25 124.5625 C 198.125 124.4375 197 124.25 195.875 124.0625 C 195.25 123.9375 194.5625 123.75 193.9375 123.625 C 192.9375 123.375 191.9375 123.1875 190.9375 122.875 C 190.25 122.6875 189.625 122.4375 188.9375 122.25 C 188 121.9375 187.0625 121.625 186.125 121.25 C 185.4375 121 184.8125 120.75 184.1875 120.4375 C 183.25 120.0625 182.375 119.625 181.4375 119.1875 C 180.8125 118.875 180.1875 118.5625 179.5625 118.25 C 178.6875 117.75 177.8125 117.25 176.9375 116.75 C 176.375 116.375 175.75 116.0625 175.1875 115.625 C 174.3125 115.0625 173.5 114.4375 172.625 113.8125 C 172.0625 113.4375 171.5625 113 171 112.625 C 170.8125 112.5 170.625 112.3125 170.4375 112.125 C 176.5625 98.0625 190.375 88.875 206.0625 88.875 C 221.75 88.875 235.5625 98.0625 241.6875 112.125 C 241.5 112.25 241.3125 112.4375 241.125 112.625 Z M 206.25 12.5 C 237.25 12.5 262.5 37.75 262.5 68.75 C 262.5 81.0625 258.375 93 251 102.6875 C 242.0625 86.6875 225.25 76.4375 206.25 76.4375 C 187.25 76.4375 170.4375 86.6875 161.5 102.6875 C 154.125 93 150 81.0625 150 68.75 C 150 37.75 175.25 12.5 206.25 12.5 Z M 206.25 12.5 " fill-opacity="1" fill-rule="nonzero"/><path fill="#000000" d="M 206.25 68.0625 C 219.25 68.0625 229.875 57.5 229.875 44.4375 C 229.875 31.375 219.3125 20.8125 206.25 20.8125 C 193.1875 20.8125 182.625 31.4375 182.625 44.4375 C 182.625 57.4375 193.1875 68.0625 206.25 68.0625 Z M 206.25 33.3125 C 212.375 33.3125 217.375 38.3125 217.375 44.4375 C 217.375 50.5625 212.375 55.5625 206.25 55.5625 C 200.125 55.5625 195.125 50.5625 195.125 44.4375 C 195.125 38.3125 200.125 33.3125 206.25 33.3125 Z M 206.25 33.3125 " fill-opacity="1" fill-rule="nonzero"/><path fill="#000000" d="M 318.5 255.9375 C 330.375 254.8125 341.625 250.3125 351 242.9375 C 352.5625 241.6875 354.0625 240.375 355.5625 239 C 367.9375 227.3125 375 210.8125 375 193.75 C 375 159.3125 346.9375 131.25 312.5 131.25 C 278.0625 131.25 250 159.3125 250 193.75 C 250 210.875 257.125 227.375 269.5 239 C 281.125 250.125 296.375 256.25 312.5 256.25 C 314.5 256.25 316.5 256.125 318.5 255.9375 Z M 307.9375 243.5 C 307.4375 243.5 306.9375 243.375 306.4375 243.3125 C 305.4375 243.1875 304.4375 243.0625 303.4375 242.875 C 302.875 242.75 302.3125 242.625 301.75 242.5 C 300.8125 242.3125 299.9375 242.0625 299 241.8125 C 298.4375 241.625 297.875 241.5 297.3125 241.3125 C 296.4375 241.0625 295.5625 240.75 294.75 240.4375 C 294.1875 240.25 293.625 240 293.0625 239.75 C 292.25 239.375 291.375 239 290.5625 238.625 C 290.0625 238.375 289.5 238.125 289 237.8125 C 288.1875 237.375 287.375 236.875 286.5625 236.375 C 286.0625 236.0625 285.625 235.8125 285.125 235.5 C 284.3125 234.9375 283.5 234.375 282.6875 233.75 C 282.25 233.4375 281.8125 233.125 281.4375 232.8125 C 281.3125 232.75 281.25 232.625 281.125 232.5625 C 286.625 220.375 298.75 212.4375 312.4375 212.4375 C 326.125 212.4375 338.25 220.375 343.75 232.5625 C 343.625 232.625 343.5625 232.75 343.4375 232.8125 C 343 233.1875 342.5625 233.5 342.125 233.8125 C 341.375 234.375 340.625 234.9375 339.8125 235.4375 C 339.3125 235.75 338.8125 236.0625 338.25 236.375 C 337.5 236.8125 336.6875 237.3125 335.9375 237.75 C 335.375 238.0625 334.8125 238.3125 334.25 238.5625 C 333.4375 238.9375 332.6875 239.3125 331.875 239.6875 C 331.3125 239.9375 330.75 240.1875 330.125 240.375 C 329.3125 240.6875 328.4375 241 327.625 241.25 C 327.0625 241.4375 326.4375 241.625 325.875 241.8125 C 325 242.0625 324.125 242.25 323.1875 242.4375 C 322.625 242.5625 322.0625 242.6875 321.5 242.8125 C 320.5 243 319.5 243.125 318.5 243.25 C 318 243.25 317.5 243.375 317 243.4375 C 315.5 243.5625 314 243.625 312.4375 243.625 C 310.875 243.625 309.375 243.5625 307.875 243.4375 Z M 312.5 143.6875 C 340.0625 143.6875 362.5 166.125 362.5 193.6875 C 362.5 204.3125 359 214.625 352.8125 223.125 C 344.5625 209 329.5 199.9375 312.5 199.9375 C 295.5 199.9375 280.4375 209 272.1875 223.125 C 266 214.625 262.5 204.3125 262.5 193.6875 C 262.5 166.125 284.9375 143.6875 312.5 143.6875 Z M 312.5 143.6875 " fill-opacity="1" fill-rule="nonzero"/><path fill="#000000" d="M 312.5 193.75 C 324.5625 193.75 334.375 183.9375 334.375 171.875 C 334.375 159.8125 324.5625 150 312.5 150 C 300.4375 150 290.625 159.8125 290.625 171.875 C 290.625 183.9375 300.4375 193.75 312.5 193.75 Z M 312.5 162.5 C 317.6875 162.5 321.875 166.6875 321.875 171.875 C 321.875 177.0625 317.6875 181.25 312.5 181.25 C 307.3125 181.25 303.125 177.0625 303.125 171.875 C 303.125 166.6875 307.3125 162.5 312.5 162.5 Z M 312.5 162.5 " fill-opacity="1" fill-rule="nonzero"/><path fill="#000000" d="M 336.8125 297.1875 C 335.9375 295.375 334.1875 294.125 332.25 293.8125 C 330.3125 293.5 328.25 294.125 326.8125 295.5625 L 314.1875 308.1875 L 299.3125 278.4375 C 297.75 275.375 294 274.125 290.9375 275.625 C 287.875 277.1875 286.625 280.9375 288.125 284 L 306.875 321.5 C 307.75 323.3125 309.5 324.5625 311.4375 324.875 C 313.4375 325.1875 315.4375 324.5625 316.875 323.125 L 329.5 310.5 L 344.375 340.25 C 345.5 342.4375 347.6875 343.6875 350 343.6875 C 350.9375 343.6875 351.875 343.5 352.8125 343 C 355.875 341.4375 357.125 337.6875 355.625 334.625 L 336.875 297.125 Z M 336.8125 297.1875 " fill-opacity="1" fill-rule="nonzero"/><path fill="#000000" d="M 64.875 59.375 L 82.6875 59.375 L 72.1875 90.9375 C 71.125 94.1875 72.875 97.75 76.125 98.8125 C 76.75 99.0625 77.4375 99.125 78.125 99.125 C 80.75 99.125 83.1875 97.5 84.0625 94.875 L 97.3125 55.125 C 97.9375 53.25 97.625 51.125 96.4375 49.5 C 95.25 47.875 93.375 46.875 91.375 46.875 L 73.5625 46.875 L 84.0625 15.3125 C 85.125 12.0625 83.375 8.5 80.125 7.4375 C 76.8125 6.375 73.3125 8.125 72.1875 11.375 L 58.9375 51.125 C 58.3125 53 58.625 55.125 59.8125 56.75 C 61 58.375 62.875 59.375 64.875 59.375 Z M 64.875 59.375 " fill-opacity="1" fill-rule="nonzero"/></svg>